<svg version="1.2" xmlns="http://www.w3.org/2000/svg" viewBox="0 0 250 100" width="250" height="100">
	<title>AjdinLogo</title>
	<style>
		.s0 { fill: #062525 } 
		.s1 { fill: #f7a064 } 
		.s2 { fill: #f3f3e7 } 
		.s3 { fill: none;stroke: #f7a064;stroke-miterlimit:10;stroke-width: .5 } 
	</style>
	<g id="Layer 1">
		<path id="&lt;Path&gt;" class="s0" d="m577.8-73.4h-61.1v-61.6h61.1z"/>
		<path id="&lt;Path&gt;" class="s1" d="m662.2-73.4h-61.1v-61.6h61.1z"/>
		<path id="&lt;Path&gt;" class="s2" d="m751.1-73.4h-61.1v-61.6h61.1z"/>
		<g id="&lt;Group&gt;">
			<path id="&lt;Path&gt;" class="s2" d="m424.3 685.1h-595.3v-426.8h595.3z"/>
		</g>
		<g id="&lt;Group&gt;">
			<g id="&lt;Group&gt;">
				<path id="&lt;Compound Path&gt;" class="s2" d="m22.1 83.3v-22.4h12.5v0.4h-10v10.6h6.7v0.4h-6.7v10.6h10v0.4z"/>
				<path id="&lt;Compound Path&gt;" class="s2" d="m45.6 83.3v-8.2q0-1-0.1-2.1-0.2-1.1-0.8-2-0.5-0.8-1.9-0.9-2.5 0-3.8 2v11.2h-2.5v-13.6h2.5v1.8q1.5-1.8 3.8-1.8 2.7 0.1 4 1.7 1.4 1.5 1.4 4.1v7.8z"/>
				<path id="&lt;Compound Path&gt;" class="s2" d="m53.5 82.4q-1.6-0.9-2.5-2.5-0.9-1.5-0.9-3.4 0-1.9 0.9-3.4 0.9-1.6 2.5-2.5 1.6-0.9 3.5-0.9 1.7 0 3.2 0.8 1.4 0.7 2.4 2l-1.7 1.2q-0.5-1.7-1.5-2.6-1.1-1-2.4-1-1.2 0-2.2 0.8-1 0.9-1.6 2.4-0.6 1.5-0.6 3.2 0 1.8 0.6 3.2 0.6 1.5 1.6 2.4 1 0.8 2.2 0.8 1.3 0 2.3-0.9 1-0.9 1.6-2.4l1.5 1.2q-1 1.1-2.4 1.8-1.4 0.7-3 0.7-1.9 0-3.5-0.9z"/>
				<path id="&lt;Compound Path&gt;" class="s2" d="m73.7 83.3v-8.4q0-0.9-0.2-1.9-0.1-1.2-0.7-2-0.6-0.8-2-0.9-2.4 0-3.7 2v11.2h-2.6v-22.4h2.6v10.6q1.4-1.8 3.8-1.8 2.6 0.1 4 1.6 1.3 1.6 1.3 4.2v7.8z"/>
				<path id="&lt;Compound Path&gt;" fill-rule="evenodd" class="s2" d="m86.4 83.3v-2.3q-1.1 2.3-4 2.3-0.7 0-1.4-0.2-1.6-0.5-2.4-1.9-0.3-0.7-0.3-1.4 0-1.1 0.7-2 0.8-0.9 1.9-1.3 1.1-0.4 2.2-0.7 1.2-0.2 2.1-0.6 0.9-0.4 1.2-1.3v-0.1q0-0.6-0.2-1.3-0.1-0.8-0.5-1.5-0.9-1-2-1-1.1 0-1.8 0.7-0.6 0.6-0.6 1.5 0 0.2 0 0.5l-2.3-0.9q0.5-1.2 1.7-1.6 1.3-0.5 2.7-0.5 1.6 0 3 0.6 1.1 0.4 1.8 1.4 0.6 0.9 0.7 2.3 0.1 3.6 0.1 7.2v2.1zm0-3.1q0-2.7-0.1-5.5-0.5 0.6-1.2 0.9-0.7 0.3-1.5 0.5-0.8 0.2-1.5 0.5-0.7 0.4-1 1-0.3 0.6-0.3 1.3 0 0.4 0.1 0.9 0.3 1.5 1.2 2.1 0.9 0.6 1.6 0.6 1.9 0 2.7-2.3z"/>
				<path id="&lt;Compound Path&gt;" class="s2" d="m99.9 83.3v-8.2q0-1-0.2-2.1-0.1-1.1-0.7-2-0.6-0.8-1.9-0.9-2.5 0-3.8 2v11.2h-2.6v-13.6h2.6v1.8q1.4-1.8 3.8-1.8 2.7 0.1 4 1.7 1.3 1.5 1.3 4.1v7.8z"/>
				<path id="&lt;Compound Path&gt;" class="s2" d="m109.7 83.3q-0.4 0-1.2-0.2-0.8-0.2-1.5-1.1-0.8-1.2-0.9-3.8-0.1-2.6-0.1-5.2 0-1.5 0.1-2.9h-1.8v-0.4h1.8q0-1.9 0-3.8h2.6l-0.1 3.8h2.9v0.4h-2.9v2.7q0 2.7 0.1 5.3v0.5q0 3.6 1.3 4.1 0.3 0.1 0.5 0.1 0.3 0 0.7-0.4 0.4-0.3 0.5-1h0.3q-0.1 1.2-1 1.6-0.6 0.3-1.3 0.3z"/>
				<path id="&lt;Compound Path&gt;" class="s2" d="m114.3 67.6q-0.4-0.4-0.4-0.9 0-0.5 0.4-0.9 0.4-0.4 0.9-0.4 0.5 0 0.9 0.4 0.4 0.4 0.4 0.9 0 0.5-0.4 0.9-0.4 0.4-0.9 0.4-0.5 0-0.9-0.4zm-0.4 15.7v-13.6h2.6v13.6z"/>
				<path id="&lt;Compound Path&gt;" class="s2" d="m127.6 83.3v-8.2q0-1-0.2-2.1-0.1-1.1-0.7-2-0.6-0.8-2-0.9-2.4 0-3.7 2v11.2h-2.6v-13.6h2.6v1.8q1.4-1.8 3.7-1.8 2.7 0.1 4.1 1.7 1.3 1.5 1.3 4.1v7.8z"/>
				<path id="&lt;Compound Path&gt;" fill-rule="evenodd" class="s2" d="m138.9 90.5q-1 0-2.4-0.3-1.5-0.4-2.3-1.2-0.9-0.8-0.9-1.8 0-0.3 0.1-0.7 0.3-1.2 1.3-2.1-1.2-0.6-1.4-1.3-0.2-0.8-0.1-1.1-0.1-0.8 0.4-1.5 0.7-1.1 2.4-1.5-1.7-0.7-2.7-2-0.8-1.1-0.8-2.4 0-1.3 0.9-2.5 0.8-1.1 2.2-1.7 1.5-0.7 3.2-0.7 0.7 0 1.6-0.3 0.9-0.2 1.5-0.8 0.7-0.6 0.7-1.4l1.3 1q-0.3 0.3-1 0.6-0.7 0.4-1.5 0.6-0.8 0.3-1.2 0.4 1.2 0.3 2.3 0.9 1.1 0.6 1.8 1.6 0.7 0.9 0.7 2.3 0 1.4-0.8 2.5-0.9 1.1-2.3 1.8-1.4 0.6-3.1 0.6-1 0-2-0.2-0.1 0-0.2 0-0.4 0-1.1 0.2-0.8 0.3-1.1 0.7-0.2 0.4-0.2 0.6-0.1 0.3 0.4 0.6 0.6 0.6 3.1 1.1 1.3-0.8 2.7-1.2 1.1-0.5 2.2-0.5 0.3 0 0.6 0.1l-0.5 1.3-0.2-0.1q-0.6-0.3-1.3-0.3-0.3 0-0.8 0-0.8 0.2-2.1 0.7l0.4 0.1q1.7 0.2 3.2 0.6 2.3 0.8 3.1 1.8 0.8 1 0.8 1.8 0 0.5-0.3 1-0.8 1.2-2.6 2-1.8 0.7-3.9 0.7zm3.3-0.9q1.3-0.7 1.3-1.6 0-0.8-1.1-1.6-0.9-0.6-2.2-0.9-0.9-0.2-1.8-0.3h-0.1q-1.7-0.2-3.2-0.7-1.1 1-1.4 2.1-0.1 0.3-0.1 0.5 0 1 0.8 1.6 1 0.8 2.3 1.2 1.4 0.4 2.4 0.4 1.9-0.1 3.1-0.7zm-0.8-11.8q1.1-1.3 1.1-3.2 0-1.9-1.1-3.2-1.1-1.3-2.6-1.3-1.6 0-2.7 1.3-1 1.3-1 3.2 0 1.9 1 3.2 1.1 1.4 2.7 1.4 1.5 0 2.6-1.4z"/>
				<path id="&lt;Compound Path&gt;" fill-rule="evenodd" class="s2" d="m165.9 60.9q3 0.1 4.5 1.3 1.5 1.2 1.7 2.8 0.2 1.7-0.8 3.2-0.9 1.5-3 2.1 2.2 0.3 3.6 1.4 1.4 1 2 2.4 0.6 1.5 0.4 3.1-0.2 1.6-1.2 3-1 1.3-2.9 2.2-1.8 0.9-4.5 0.9h-8.4v-22.4zm-6 9.4h6.4q1.7-0.1 2.5-1.5 0.8-1.3 0.8-3.1 0-1.7-0.9-3-0.9-1.4-2.8-1.4h-6zm0 0.3v12.3h5.9q1.9 0 3.1-0.9 1.3-0.9 2-2.3 0.6-1.4 0.6-2.9 0.1-1.5-0.5-2.9-0.5-1.4-1.6-2.3-1.1-0.9-2.7-1h-2.2q-2.3 0-4.6 0z"/>
				<path id="&lt;Compound Path&gt;" fill-rule="evenodd" class="s2" d="m179.1 82.4q-1.6-0.9-2.5-2.5-0.9-1.5-0.9-3.4 0-1.8 0.9-3.4 0.9-1.6 2.5-2.5 1.6-0.9 3.5-0.9 1.9 0 3.5 0.9 1.6 0.9 2.5 2.5 1 1.6 1 3.4 0 1.9-1 3.4-0.9 1.6-2.5 2.5-1.6 0.9-3.5 0.9-1.9 0-3.5-0.9zm5.7-0.3q1-0.9 1.6-2.4 0.6-1.4 0.6-3.2 0-1.7-0.6-3.2-0.6-1.5-1.6-2.4-1-0.8-2.2-0.8-1.2 0-2.2 0.8-1 0.9-1.6 2.4-0.6 1.5-0.6 3.2 0 1.8 0.6 3.2 0.6 1.5 1.6 2.4 1 0.8 2.2 0.8 1.2 0 2.2-0.8z"/>
				<path id="&lt;Compound Path&gt;" class="s2" d="m194.1 83.2q-2.6-0.4-3.1-2.2l1.9-0.6q-0.1 0.4-0.1 0.7 0 0.8 0.5 1.2 0.7 0.6 1.8 0.6 1.3 0 2.3-0.7 0.7-0.7 0.7-1.5 0-0.1 0-0.3-0.2-0.9-1-1.7-0.5-0.7-1.2-1.2-0.7-0.4-1.4-0.9-1.1-0.5-1.9-1.2-0.9-0.6-1.4-1.7-0.2-0.6-0.2-1.2 0-0.4 0.1-0.8 0.4-1 1.8-1.6 1.1-0.4 2.2-0.4 0.5 0 0.9 0.1 1.6 0.2 2.3 0.9 0.7 0.7 0.9 1.3l-1.9 0.6q0.1-0.3 0.1-0.7 0-0.8-0.6-1.2-0.8-0.7-1.9-0.7-1 0-1.5 0.5-0.4 0.5-0.4 0.9 0 0.5 0.4 1.2 0.5 0.9 1.3 1.5 0.7 0.6 1.6 1.1 0.8 0.4 1.5 0.9 0.7 0.6 1.3 1.3 0.8 1.2 0.8 2.2 0 1.8-2 2.9-1.4 0.8-3 0.8-0.4 0-0.8-0.1z"/>
				<path id="&lt;Compound Path&gt;" class="s2" d="m211.5 83.3v-8.2q0-1-0.1-2.1-0.1-1.1-0.7-2-0.6-0.8-2-0.9-2.4 0-3.8 2v11.2h-2.5v-13.6h2.5v1.8q1.5-1.8 3.8-1.8 2.7 0.1 4 1.7 1.4 1.5 1.4 4.1v7.8z"/>
				<path id="&lt;Compound Path&gt;" class="s2" d="m216.4 67.6q-0.4-0.4-0.4-0.9 0-0.5 0.4-0.9 0.3-0.4 0.9-0.4 0.5 0 0.9 0.4 0.3 0.4 0.3 0.9 0 0.5-0.3 0.9-0.4 0.4-0.9 0.4-0.6 0-0.9-0.4zm-0.4 15.7v-13.6h2.5v13.6z"/>
				<path id="&lt;Compound Path&gt;" fill-rule="evenodd" class="s2" d="m228.8 83.3v-2.3q-1.2 2.3-4 2.3-0.7 0-1.5-0.2-1.5-0.5-2.3-1.9-0.4-0.7-0.4-1.4 0-1.1 0.8-2 0.7-0.9 1.8-1.3 1.1-0.4 2.3-0.7 1.1-0.2 2-0.6 0.9-0.4 1.2-1.3v-0.1q0-0.6-0.1-1.3-0.1-0.8-0.6-1.5-0.8-1-1.9-1-1.1 0-1.8 0.7-0.7 0.6-0.7 1.5 0 0.2 0 0.5l-2.2-0.9q0.4-1.2 1.7-1.6 1.2-0.5 2.6-0.5 1.7 0 3 0.6 1.1 0.4 1.8 1.4 0.7 0.9 0.7 2.3 0.1 3.6 0.1 7.2v2.1zm0-3.1q0-2.7 0-5.5-0.6 0.6-1.3 0.9-0.7 0.3-1.4 0.5-0.9 0.2-1.6 0.5-0.6 0.4-0.9 1-0.3 0.6-0.3 1.3 0 0.4 0 0.9 0.3 1.5 1.2 2.1 0.9 0.6 1.6 0.6 1.9 0 2.7-2.3z"/>
			</g>
			<g id="&lt;Group&gt;">
				<g id="&lt;Group&gt;">
					<g id="&lt;Group&gt;">
						<path id="&lt;Path&gt;" class="s3" d="m137.4 37.6c-4.1-4.1-10.7-4-10.7-4 0 0-0.1 6.5 4 10.7q0 0 0 0 0 0 0 0c4.2 4.2 10.8 4.1 10.8 4.1 0 0 0.1-6.6-4.1-10.8q0 0 0 0 0 0 0 0z"/>
						<path id="&lt;Path&gt;" class="s3" d="m129.4 36.3c1.9 0.4 4.5 1.2 6.3 3 1.8 1.9 2.7 4.4 3 6.3-1.9-0.4-4.4-1.2-6.2-3-1.9-1.9-2.7-4.4-3.1-6.3z"/>
					</g>
					<g id="&lt;Group&gt;">
						<path id="&lt;Path&gt;" class="s3" d="m122.6 22.8c4.2 4.2 4.1 10.8 4.1 10.8 0 0-6.6 0.1-10.8-4.1q0 0 0 0 0 0 0 0c-4.1-4.2-4-10.7-4-10.7 0 0 6.6-0.1 10.7 4q0 0 0 0 0 0 0 0z"/>
						<path id="&lt;Path&gt;" class="s3" d="m123.9 30.8c-0.3-1.9-1.2-4.4-3-6.3-1.8-1.8-4.4-2.6-6.3-3 0.4 1.9 1.2 4.4 3.1 6.3 1.8 1.8 4.3 2.6 6.2 3z"/>
					</g>
					<g id="&lt;Group&gt;">
						<path id="&lt;Path&gt;" class="s3" d="m122.6 44.3c4.2-4.2 4.1-10.7 4.1-10.7 0 0-6.6-0.1-10.8 4q0 0 0 0 0 0 0 0c-4.1 4.2-4 10.8-4 10.8 0 0 6.6 0.1 10.7-4.1q0 0 0 0 0 0 0 0z"/>
						<path id="&lt;Path&gt;" class="s3" d="m123.9 36.3c-0.3 1.9-1.2 4.4-3 6.3-1.8 1.8-4.4 2.6-6.3 3 0.4-1.9 1.2-4.4 3.1-6.3 1.8-1.8 4.3-2.6 6.2-3z"/>
					</g>
					<g id="&lt;Group&gt;">
						<path id="&lt;Path&gt;" class="s3" d="m137.4 29.5c-4.1 4.2-10.7 4.1-10.7 4.1 0 0-0.1-6.6 4-10.8q0 0 0 0 0 0 0 0c4.2-4.1 10.8-4 10.8-4 0 0 0.1 6.5-4.1 10.7q0 0 0 0 0 0 0 0z"/>
						<path id="&lt;Path&gt;" class="s3" d="m129.4 30.8c1.9-0.4 4.5-1.2 6.3-3 1.8-1.9 2.7-4.4 3-6.3-1.9 0.4-4.4 1.2-6.2 3-1.9 1.9-2.7 4.4-3.1 6.3z"/>
					</g>
					<path id="&lt;Path&gt;" class="s3" d="m148.1 32.3c0.8 0.7 0.8 1.8 0 2.6-0.7 0.7-1.8 0.7-2.6 0-0.7-0.8-0.7-1.9 0-2.6 0.8-0.8 1.9-0.8 2.6 0z"/>
					<path id="&lt;Path&gt;" class="s3" d="m128 52.4c0.7 0.7 0.7 1.9 0 2.6-0.7 0.7-1.9 0.7-2.6 0-0.7-0.7-0.7-1.9 0-2.6 0.7-0.7 1.9-0.7 2.6 0z"/>
					<path id="&lt;Path&gt;" class="s3" d="m128 12.1c0.7 0.7 0.7 1.9 0 2.6-0.7 0.7-1.9 0.7-2.6 0-0.7-0.7-0.7-1.9 0-2.6 0.7-0.7 1.9-0.7 2.6 0z"/>
					<path id="&lt;Path&gt;" class="s3" d="m107.8 32.3c0.7 0.7 0.7 1.8 0 2.6-0.7 0.7-1.9 0.7-2.6 0-0.7-0.8-0.7-1.9 0-2.6 0.7-0.8 1.9-0.8 2.6 0z"/>
				</g>
				<path id="&lt;Path&gt;" class="s3" d="m126.7 15.2v36.7"/>
				<path id="&lt;Path&gt;" class="s3" d="m145 33.6h-36.6"/>
			</g>
		</g>
		<g id="&lt;Group&gt;">
			<g id="&lt;Group&gt;">
				<path id="&lt;Compound Path&gt;" class="s0" d="m22 504v-22.4h12.5v0.4h-9.9v10.6h6.6v0.4h-6.6v10.6h9.9v0.4z"/>
				<path id="&lt;Compound Path&gt;" class="s0" d="m45.6 504v-8.2q0-1.1-0.2-2.1-0.1-1.2-0.7-2-0.6-0.8-2-1-2.4 0.1-3.7 2.1v11.2h-2.6v-13.6h2.6v1.8q1.4-1.8 3.7-1.8 2.8 0.1 4.1 1.6 1.3 1.6 1.3 4.2v7.8z"/>
				<path id="&lt;Compound Path&gt;" class="s0" d="m53.5 503q-1.6-0.9-2.5-2.4-1-1.5-1-3.4 0-1.9 1-3.4 0.9-1.6 2.5-2.5 1.6-0.9 3.5-0.9 1.7 0 3.1 0.7 1.5 0.8 2.5 2.1l-1.7 1.1q-0.5-1.6-1.6-2.6-1-1-2.3-1-1.2 0-2.2 0.9-1 0.9-1.6 2.4-0.6 1.4-0.6 3.2 0 1.8 0.6 3.2 0.6 1.5 1.6 2.3 1 0.9 2.2 0.9 1.2 0 2.2-0.9 1.1-1 1.6-2.5l1.6 1.3q-1 1.1-2.4 1.8-1.4 0.7-3 0.7-1.9 0-3.5-1z"/>
				<path id="&lt;Compound Path&gt;" class="s0" d="m73.6 504v-8.4q0-1-0.1-1.9-0.1-1.2-0.7-2-0.6-0.8-2-1-2.4 0.1-3.8 2.1v11.2h-2.5v-22.4h2.5v10.6q1.5-1.8 3.8-1.8 2.7 0.1 4 1.6 1.4 1.6 1.4 4.2v7.8z"/>
				<path id="&lt;Compound Path&gt;" fill-rule="evenodd" class="s0" d="m86.4 504v-2.3q-1.2 2.2-4 2.2-0.7 0-1.4-0.2-1.6-0.4-2.4-1.8-0.3-0.7-0.3-1.4 0-1.1 0.7-2 0.8-0.9 1.8-1.3 1.1-0.4 2.3-0.7 1.1-0.3 2-0.7 0.9-0.4 1.2-1.2v-0.2q0-0.5-0.1-1.3-0.1-0.8-0.6-1.4-0.8-1-1.9-1-1.1 0-1.8 0.6-0.7 0.7-0.7 1.5 0 0.3 0.1 0.5l-2.3-0.9q0.4-1.1 1.7-1.6 1.2-0.4 2.7-0.4 1.6 0 2.9 0.5 1.1 0.5 1.8 1.4 0.7 1 0.7 2.4 0.1 3.6 0.1 7.2v2.1zm0-3.1q0-2.8 0-5.5-0.5 0.6-1.3 0.9-0.7 0.3-1.4 0.5-0.8 0.2-1.5 0.5-0.7 0.3-1 0.9-0.3 0.6-0.3 1.4 0 0.4 0.1 0.9 0.2 1.5 1.1 2.1 0.9 0.6 1.7 0.6 1.8 0 2.6-2.3z"/>
				<path id="&lt;Compound Path&gt;" class="s0" d="m99.8 504v-8.2q0-1.1-0.1-2.1-0.1-1.2-0.7-2-0.6-0.8-2-1-2.4 0.1-3.8 2.1v11.2h-2.5v-13.6h2.5v1.8q1.5-1.8 3.8-1.8 2.7 0.1 4 1.6 1.4 1.6 1.4 4.2v7.8z"/>
				<path id="&lt;Compound Path&gt;" class="s0" d="m109.7 504q-0.4 0-1.2-0.2-0.8-0.2-1.5-1.1-0.8-1.2-0.9-3.9-0.1-2.5-0.1-5.1 0-1.5 0-3h-1.7v-0.3h1.7q0.1-1.9 0.1-3.8h2.5v3.8h2.9v0.3h-2.9v2.7q0 2.7 0 5.4v0.4q0 3.7 1.4 4.2 0.2 0.1 0.4 0.1 0.4 0 0.8-0.4 0.4-0.3 0.4-1.1h0.4q-0.1 1.2-1.1 1.7-0.6 0.3-1.2 0.3z"/>
				<path id="&lt;Compound Path&gt;" class="s0" d="m114.3 488.3q-0.4-0.4-0.4-0.9 0-0.5 0.4-0.9 0.4-0.4 0.9-0.4 0.5 0 0.9 0.4 0.3 0.4 0.3 0.9 0 0.5-0.3 0.9-0.4 0.4-0.9 0.4-0.5 0-0.9-0.4zm-0.4 15.7v-13.6h2.5v13.6z"/>
				<path id="&lt;Compound Path&gt;" class="s0" d="m127.5 504v-8.2q0-1.1-0.1-2.1-0.2-1.2-0.8-2-0.5-0.8-1.9-1-2.5 0.1-3.8 2.1v11.2h-2.5v-13.6h2.5v1.8q1.5-1.8 3.8-1.8 2.7 0.1 4 1.6 1.4 1.6 1.4 4.2v7.8z"/>
				<path id="&lt;Compound Path&gt;" fill-rule="evenodd" class="s0" d="m138.9 511.2q-1.1 0-2.5-0.4-1.4-0.4-2.3-1.2-0.9-0.7-0.9-1.8 0-0.3 0.1-0.6 0.3-1.2 1.4-2.2-1.3-0.5-1.4-1.3-0.2-0.7-0.2-1 0-0.8 0.5-1.6 0.7-1 2.3-1.4-1.7-0.7-2.6-2-0.8-1.1-0.8-2.4 0-1.4 0.8-2.5 0.9-1.1 2.3-1.8 1.4-0.6 3.1-0.6 0.8 0 1.7-0.3 0.8-0.3 1.5-0.8 0.6-0.6 0.7-1.5l1.2 1q-0.3 0.3-1 0.7-0.7 0.3-1.4 0.6-0.8 0.3-1.2 0.4 1.2 0.3 2.3 0.9 1.1 0.6 1.8 1.5 0.7 1 0.7 2.4 0 1.4-0.9 2.5-0.8 1.1-2.2 1.8-1.4 0.6-3.2 0.6-1 0-1.9-0.2-0.1 0-0.2 0-0.5 0-1.1 0.2-0.8 0.3-1.1 0.7-0.3 0.3-0.3 0.5 0 0.4 0.4 0.7 0.7 0.6 3.1 1 1.4-0.7 2.7-1.2 1.2-0.4 2.3-0.4 0.3 0 0.6 0l-0.6 1.4-0.2-0.1q-0.6-0.4-1.3-0.4-0.3 0-0.7 0.1-0.8 0.1-2.1 0.7l0.4 0.1q1.7 0.2 3.2 0.6 2.3 0.7 3.1 1.7 0.7 1.1 0.7 1.8 0 0.6-0.3 1.1-0.7 1.2-2.5 2-1.8 0.7-3.9 0.7zm3.3-0.9q1.2-0.7 1.2-1.6 0-0.9-1.1-1.6-0.8-0.6-2.1-0.9-0.9-0.2-1.8-0.3h-0.1q-1.8-0.2-3.2-0.7-1.1 0.9-1.5 2.1 0 0.3 0 0.5 0 1 0.8 1.6 0.9 0.8 2.3 1.2 1.4 0.3 2.3 0.3 2 0 3.2-0.6zm-0.9-11.8q1.1-1.3 1.1-3.2 0-1.9-1.1-3.2-1.1-1.4-2.6-1.4-1.5 0-2.6 1.4-1.1 1.3-1.1 3.2 0 1.9 1.1 3.2 1.1 1.3 2.6 1.3 1.5 0 2.6-1.3z"/>
				<path id="&lt;Compound Path&gt;" fill-rule="evenodd" class="s0" d="m165.8 481.6q3 0 4.6 1.2 1.5 1.2 1.7 2.9 0.2 1.7-0.8 3.2-1 1.5-3 2.1 2.1 0.3 3.5 1.3 1.4 1 2 2.5 0.6 1.5 0.4 3-0.2 1.6-1.2 3-1 1.4-2.8 2.3-1.9 0.9-4.5 0.9h-8.4v-22.4zm-6 9.4h6.3q1.7-0.2 2.6-1.5 0.8-1.3 0.8-3.1-0.1-1.7-1-3.1-0.9-1.3-2.7-1.3h-6zm0 0.3v12.2h5.8q1.9 0 3.2-0.8 1.3-0.9 1.9-2.3 0.6-1.4 0.7-2.9 0-1.6-0.5-3-0.5-1.4-1.6-2.3-1.1-0.8-2.7-0.9h-2.2q-2.4 0-4.6 0z"/>
				<path id="&lt;Compound Path&gt;" fill-rule="evenodd" class="s0" d="m179.1 503q-1.6-0.9-2.5-2.4-1-1.5-1-3.4 0-1.9 1-3.4 0.9-1.6 2.5-2.5 1.5-0.9 3.5-0.9 1.9 0 3.5 0.9 1.5 0.9 2.5 2.5 0.9 1.5 0.9 3.4 0 1.9-0.9 3.4-1 1.5-2.5 2.4-1.6 1-3.5 1-2 0-3.5-1zm5.7-0.3q1-0.8 1.6-2.3 0.6-1.4 0.6-3.2 0-1.8-0.6-3.2-0.6-1.5-1.6-2.4-1-0.9-2.2-0.9-1.3 0-2.2 0.9-1 0.9-1.6 2.4-0.6 1.4-0.6 3.2 0 1.8 0.6 3.2 0.6 1.5 1.6 2.3 1 0.9 2.2 0.9 1.2 0 2.2-0.9z"/>
				<path id="&lt;Compound Path&gt;" class="s0" d="m194.1 503.9q-2.6-0.4-3.2-2.2l1.9-0.7q-0.1 0.4-0.1 0.7 0 0.8 0.6 1.3 0.7 0.6 1.7 0.6 1.3 0 2.3-0.8 0.8-0.6 0.8-1.4 0-0.2-0.1-0.3-0.2-1-0.9-1.8-0.5-0.6-1.2-1.1-0.8-0.5-1.5-0.9-1-0.5-1.9-1.2-0.8-0.7-1.3-1.7-0.3-0.6-0.3-1.2 0-0.4 0.2-0.9 0.3-1 1.7-1.5 1.1-0.4 2.3-0.4 0.4 0 0.9 0 1.6 0.3 2.3 1 0.6 0.6 0.8 1.2l-1.9 0.7q0.1-0.4 0.1-0.7 0-0.8-0.6-1.3-0.7-0.6-1.8-0.6-1.1 0-1.5 0.5-0.4 0.5-0.4 0.9 0 0.5 0.3 1.2 0.5 0.9 1.3 1.5 0.8 0.5 1.7 1 0.7 0.5 1.5 1 0.7 0.5 1.2 1.3 0.9 1.1 0.9 2.2 0 1.8-2 2.9-1.4 0.8-3 0.8-0.4 0-0.8-0.1z"/>
				<path id="&lt;Compound Path&gt;" class="s0" d="m211.5 504v-8.2q0-1.1-0.2-2.1-0.1-1.2-0.7-2-0.6-0.8-1.9-1-2.5 0.1-3.8 2.1v11.2h-2.6v-13.6h2.6v1.8q1.4-1.8 3.8-1.8 2.7 0.1 4 1.6 1.3 1.6 1.3 4.2v7.8z"/>
				<path id="&lt;Compound Path&gt;" class="s0" d="m216.3 488.3q-0.4-0.4-0.4-0.9 0-0.5 0.4-0.9 0.4-0.4 0.9-0.4 0.5 0 0.9 0.4 0.4 0.4 0.4 0.9 0 0.5-0.4 0.9-0.4 0.4-0.9 0.4-0.5 0-0.9-0.4zm-0.4 15.7v-13.6h2.6v13.6z"/>
				<path id="&lt;Compound Path&gt;" fill-rule="evenodd" class="s0" d="m228.7 504v-2.3q-1.1 2.2-4 2.2-0.7 0-1.4-0.2-1.6-0.4-2.4-1.8-0.3-0.7-0.3-1.4 0-1.1 0.7-2 0.8-0.9 1.9-1.3 1.1-0.4 2.2-0.7 1.2-0.3 2.1-0.7 0.9-0.4 1.1-1.2v-0.2q0-0.5-0.1-1.3-0.1-0.8-0.6-1.4-0.8-1-1.9-1-1.1 0-1.8 0.6-0.6 0.7-0.6 1.5 0 0.3 0 0.5l-2.3-0.9q0.5-1.1 1.7-1.6 1.3-0.4 2.7-0.4 1.6 0 2.9 0.5 1.2 0.5 1.8 1.4 0.7 1 0.8 2.4 0.1 3.6 0.1 7.2v2.1zm0-3.1q0-2.8-0.1-5.5-0.5 0.6-1.2 0.9-0.7 0.3-1.5 0.5-0.8 0.2-1.5 0.5-0.7 0.3-1 0.9-0.3 0.6-0.3 1.4 0 0.4 0.1 0.9 0.3 1.5 1.2 2.1 0.9 0.6 1.6 0.6 1.8 0 2.7-2.3z"/>
			</g>
			<g id="&lt;Group&gt;">
				<g id="&lt;Group&gt;">
					<g id="&lt;Group&gt;">
						<path id="&lt;Path&gt;" class="s3" d="m137.4 458.3c-4.2-4.2-10.8-4.1-10.8-4.1 0 0-0.1 6.6 4.1 10.8q0 0 0 0 0 0 0 0c4.2 4.1 10.7 4 10.7 4 0 0 0.1-6.6-4-10.7q0 0 0 0 0 0 0 0z"/>
						<path id="&lt;Path&gt;" class="s3" d="m129.4 457c1.9 0.3 4.4 1.2 6.2 3h0.1c1.8 1.9 2.6 4.4 3 6.3-1.9-0.4-4.4-1.2-6.3-3.1-1.8-1.8-2.6-4.3-3-6.2z"/>
					</g>
					<g id="&lt;Group&gt;">
						<path id="&lt;Path&gt;" class="s3" d="m122.6 443.5c4.1 4.1 4 10.7 4 10.7 0 0-6.5 0.1-10.7-4q0 0 0 0 0 0 0 0c-4.2-4.2-4.1-10.8-4.1-10.8 0 0 6.6-0.1 10.8 4.1q0 0 0 0 0 0 0 0z"/>
						<path id="&lt;Path&gt;" class="s3" d="m123.9 451.5c-0.4-1.9-1.2-4.4-3-6.3-1.9-1.8-4.4-2.6-6.3-3 0.4 1.9 1.2 4.4 3 6.2 1.9 1.9 4.4 2.7 6.3 3.1z"/>
					</g>
					<g id="&lt;Group&gt;">
						<path id="&lt;Path&gt;" class="s3" d="m122.6 465c4.1-4.2 4-10.8 4-10.8 0 0-6.5-0.1-10.7 4.1q0 0 0 0 0 0 0 0c-4.2 4.1-4.1 10.7-4.1 10.7 0 0 6.6 0.1 10.8-4q0 0 0 0 0 0 0 0z"/>
						<path id="&lt;Path&gt;" class="s3" d="m123.9 457c-0.4 1.9-1.2 4.4-3 6.2-1.9 1.9-4.4 2.7-6.3 3.1 0.4-1.9 1.2-4.4 3-6.3 1.9-1.8 4.4-2.6 6.3-3z"/>
					</g>
					<g id="&lt;Group&gt;">
						<path id="&lt;Path&gt;" class="s3" d="m137.4 450.2c-4.2 4.1-10.8 4-10.8 4 0 0-0.1-6.6 4.1-10.7q0 0 0 0 0 0 0 0c4.2-4.2 10.7-4.1 10.7-4.1 0 0 0.1 6.6-4 10.8q0 0 0 0 0 0 0 0z"/>
						<path id="&lt;Path&gt;" class="s3" d="m129.4 451.5c1.9-0.4 4.4-1.2 6.2-3.1h0.1c1.8-1.8 2.6-4.3 3-6.2-1.9 0.3-4.4 1.2-6.3 3-1.8 1.9-2.6 4.4-3 6.3z"/>
					</g>
					<path id="&lt;Path&gt;" class="s3" d="m148.1 452.9c0.7 0.7 0.7 1.9 0 2.6-0.7 0.7-1.9 0.7-2.6 0-0.7-0.7-0.7-1.9 0-2.6 0.7-0.7 1.9-0.7 2.6 0z"/>
					<path id="&lt;Path&gt;" class="s3" d="m127.9 473.1c0.8 0.7 0.8 1.9 0 2.6-0.7 0.7-1.8 0.7-2.6 0-0.7-0.7-0.7-1.9 0-2.6 0.8-0.7 1.9-0.7 2.6 0z"/>
					<path id="&lt;Path&gt;" class="s3" d="m127.9 432.8c0.8 0.7 0.8 1.9 0 2.6-0.7 0.7-1.8 0.7-2.6 0-0.7-0.7-0.7-1.9 0-2.6 0.8-0.8 1.9-0.8 2.6 0z"/>
					<path id="&lt;Path&gt;" class="s3" d="m107.8 452.9c0.7 0.7 0.7 1.9 0 2.6-0.7 0.7-1.9 0.7-2.6 0-0.7-0.7-0.7-1.9 0-2.6 0.7-0.7 1.9-0.7 2.6 0z"/>
				</g>
				<path id="&lt;Path&gt;" class="s3" d="m126.6 435.9v36.6"/>
				<path id="&lt;Path&gt;" class="s3" d="m145 454.2h-36.7"/>
			</g>
		</g>
	</g>
</svg>