<svg version="1.2" xmlns="http://www.w3.org/2000/svg" viewBox="0 0 175 59" width="175" height="59">
	<title>AjdinLogo (2)</title>
	<style>
		.s0 { fill: #062525 } 
		.s1 { fill: #f7a064 } 
		.s2 { fill: #f3f3e7 } 
		.s3 { fill: none;stroke: #f7a064;stroke-miterlimit:10;stroke-width: .3 } 
	</style>
	<g id="Layer 1">
		<path id="&lt;Path&gt;" fill-rule="evenodd" class="s0" d="m404.5-100.5v43.1h-42.8v-43.1z"/>
		<path id="&lt;Path&gt;" fill-rule="evenodd" class="s1" d="m463.5-100.5v43.1h-42.7v-43.1z"/>
		<path id="&lt;Path&gt;" fill-rule="evenodd" class="s2" d="m525.8-100.5v43.1h-42.8v-43.1z"/>
		<g id="&lt;Group&gt;">
			<path id="&lt;Path&gt;" fill-rule="evenodd" class="s0" d="m297-115.1v289.7h-416.7v-289.7z"/>
			<path id="&lt;Path&gt;" fill-rule="evenodd" class="s2" d="m297 174.8v298.8h-416.7v-298.8z"/>
		</g>
		<g id="&lt;Group&gt;">
			<g id="&lt;Group&gt;">
				<path id="&lt;Compound Path&gt;" class="s2" d="m15.5 52.3v-15.7h8.7v0.3h-7v7.4h4.7v0.3h-4.7v7.4h7v0.3z"/>
				<path id="&lt;Compound Path&gt;" class="s2" d="m31.9 52.3v-5.7q0-0.7 0-1.5-0.2-0.8-0.6-1.4-0.4-0.6-1.3-0.6-1.8 0-2.7 1.4v7.8h-1.7v-9.5h1.7v1.3q1-1.3 2.7-1.3 1.9 0.1 2.8 1.2 0.9 1 0.9 2.9v5.4z"/>
				<path id="&lt;Compound Path&gt;" class="s2" d="m37.4 51.7q-1.1-0.7-1.7-1.8-0.6-1-0.6-2.3 0-1.4 0.6-2.4 0.6-1.2 1.7-1.8 1.2-0.6 2.5-0.6 1.2 0 2.2 0.5 1 0.5 1.7 1.4l-1.2 0.9q-0.3-1.2-1-1.8-0.8-0.7-1.7-0.7-0.8 0-1.5 0.5-0.7 0.7-1.2 1.7-0.4 1.1-0.4 2.3 0 1.2 0.4 2.2 0.5 1 1.2 1.7 0.7 0.5 1.5 0.5 0.9 0 1.6-0.6 0.7-0.6 1.1-1.7l1.1 0.9q-0.7 0.7-1.7 1.2-1 0.5-2.1 0.5-1.3 0-2.5-0.6z"/>
				<path id="&lt;Compound Path&gt;" class="s2" d="m51.6 52.3v-5.9q0-0.6-0.2-1.3 0-0.8-0.4-1.4-0.5-0.6-1.4-0.6-1.7 0-2.6 1.4v7.8h-1.9v-15.7h1.9v7.5q1-1.3 2.6-1.3 1.8 0.1 2.8 1.1 0.9 1.1 0.9 2.9v5.5z"/>
				<path id="&lt;Compound Path&gt;" fill-rule="evenodd" class="s2" d="m60.5 52.3v-1.6q-0.8 1.6-2.8 1.6-0.5 0-1-0.1-1.1-0.4-1.7-1.4-0.2-0.5-0.2-0.9 0-0.8 0.5-1.4 0.6-0.7 1.3-0.9 0.8-0.3 1.6-0.5 0.8-0.2 1.4-0.5 0.7-0.2 0.9-0.9 0-0.5-0.2-0.9 0-0.6-0.3-1.1-0.6-0.7-1.4-0.7-0.8 0-1.3 0.5-0.4 0.4-0.4 1 0 0.2 0 0.4l-1.6-0.6q0.4-0.9 1.2-1.2 0.9-0.3 1.9-0.3 1.1 0 2.1 0.4 0.8 0.3 1.2 1 0.5 0.6 0.5 1.6 0.1 2.5 0.1 5v1.5zm0-2.2q0-1.8-0.1-3.8-0.3 0.4-0.8 0.6-0.5 0.2-1.1 0.4-0.5 0.1-1 0.3-0.5 0.3-0.7 0.7-0.2 0.4-0.2 0.9 0 0.3 0 0.7 0.3 1 0.9 1.4 0.6 0.5 1.1 0.5 1.3-0.1 1.9-1.7z"/>
				<path id="&lt;Compound Path&gt;" class="s2" d="m69.9 52.3v-5.7q0-0.7-0.1-1.5-0.1-0.8-0.5-1.4-0.4-0.6-1.3-0.6-1.8 0-2.7 1.4v7.8h-1.8v-9.5h1.8v1.3q1-1.3 2.7-1.3 1.9 0.1 2.8 1.2 0.9 1 0.9 2.9v5.4z"/>
				<path id="&lt;Compound Path&gt;" class="s2" d="m76.8 52.3q-0.3 0-0.9-0.1-0.5-0.2-1-0.8-0.6-0.8-0.6-2.7-0.1-1.8-0.1-3.6 0-1 0.1-2h-1.3v-0.3h1.3q0-1.3 0-2.7h1.8l-0.1 2.7h2.1v0.3h-2.1v1.9q0 1.8 0.1 3.7v0.3q0 2.5 0.9 2.9 0.2 0.1 0.3 0.1 0.3 0 0.5-0.3 0.3-0.2 0.4-0.7h0.2q-0.1 0.8-0.7 1.1-0.4 0.2-0.9 0.2z"/>
				<path id="&lt;Compound Path&gt;" class="s2" d="m80 41.3q-0.3-0.3-0.3-0.6 0-0.4 0.3-0.6 0.3-0.3 0.6-0.3 0.4 0 0.7 0.3 0.2 0.2 0.3 0.6-0.1 0.3-0.3 0.6-0.3 0.3-0.7 0.3-0.3 0-0.6-0.3zm-0.3 11v-9.5h1.8v9.5z"/>
				<path id="&lt;Compound Path&gt;" class="s2" d="m89.3 52.3v-5.7q0-0.7-0.1-1.5-0.1-0.8-0.5-1.4-0.4-0.6-1.4-0.6-1.7 0-2.6 1.4v7.8h-1.8v-9.5h1.8v1.3q1-1.3 2.6-1.3 1.9 0.1 2.9 1.2 0.9 1 0.9 2.9v5.4z"/>
				<path id="&lt;Compound Path&gt;" fill-rule="evenodd" class="s2" d="m97.2 57.4q-0.7-0.1-1.6-0.3-1.1-0.2-1.7-0.8-0.6-0.6-0.6-1.3 0-0.2 0.1-0.4 0.2-0.9 0.9-1.5-0.8-0.4-1-0.9-0.1-0.6-0.1-0.8 0-0.6 0.3-1 0.5-0.8 1.7-1.1-1.2-0.5-1.9-1.4-0.6-0.8-0.6-1.7 0.1-0.9 0.7-1.7 0.5-0.8 1.5-1.2 1.1-0.5 2.3-0.5 0.5 0 1.1-0.2 0.6-0.2 1-0.6 0.5-0.4 0.5-1l0.9 0.7q-0.2 0.2-0.7 0.5-0.5 0.2-1 0.4-0.6 0.2-0.9 0.3 0.9 0.2 1.6 0.6 0.8 0.4 1.3 1.1 0.5 0.6 0.5 1.6 0 1-0.6 1.8-0.6 0.7-1.6 1.2-1 0.4-2.1 0.4-0.7 0.1-1.4-0.1-0.1 0-0.2 0-0.3 0-0.7 0.1-0.6 0.3-0.8 0.5-0.2 0.3-0.2 0.5 0 0.2 0.3 0.4 0.4 0.4 2.2 0.8 0.9-0.6 1.9-0.9 0.7-0.3 1.5-0.3 0.2 0 0.4 0l-0.3 0.9h-0.2q-0.4-0.2-0.9-0.2-0.2 0-0.5 0-0.6 0.1-1.5 0.5h0.3q1.2 0.2 2.2 0.4 1.6 0.6 2.2 1.3 0.6 0.7 0.6 1.3 0 0.3-0.3 0.7-0.5 0.8-1.8 1.4-1.2 0.4-2.7 0.4zm2.3-0.6q0.9-0.5 0.9-1.1 0-0.6-0.8-1.1-0.6-0.4-1.5-0.7-0.6-0.1-1.3-0.2-1.2-0.1-2.3-0.5-0.7 0.7-0.9 1.5-0.1 0.2-0.1 0.4 0 0.7 0.5 1.1 0.7 0.5 1.7 0.8 0.9 0.3 1.6 0.3 1.4-0.1 2.2-0.5zm-0.6-8.2q0.8-1 0.8-2.3 0-1.3-0.8-2.2-0.7-0.9-1.8-0.9-1.1 0-1.9 0.9-0.7 0.9-0.7 2.2 0 1.3 0.7 2.3 0.8 0.9 1.9 0.9 1.1 0 1.8-0.9z"/>
				<path id="&lt;Compound Path&gt;" fill-rule="evenodd" class="s2" d="m116.1 36.6q2.1 0.1 3.2 0.9 1 0.9 1.2 2 0.1 1.2-0.6 2.2-0.6 1.1-2.1 1.5 1.5 0.2 2.5 1 1 0.7 1.4 1.7 0.4 1 0.3 2.1-0.1 1.2-0.8 2.1-0.7 0.9-2.1 1.6-1.2 0.6-3.1 0.6h-5.9v-15.7zm-4.2 6.6h4.5q1.2-0.1 1.7-1 0.6-1 0.6-2.2 0-1.2-0.6-2.1-0.7-1-2-1h-4.2zm0 0.2v8.6h4.1q1.4 0 2.2-0.6 0.9-0.6 1.4-1.6 0.4-1 0.4-2 0.1-1.1-0.3-2.1-0.4-0.9-1.1-1.6-0.8-0.6-1.9-0.7c-1.1 0-3.7 0-4.8 0z"/>
				<path id="&lt;Compound Path&gt;" fill-rule="evenodd" class="s2" d="m125.4 51.7q-1.2-0.7-1.8-1.8-0.6-1-0.6-2.3 0-1.3 0.6-2.4 0.6-1.2 1.8-1.8 1.1-0.6 2.4-0.6 1.4 0 2.5 0.6 1.1 0.6 1.7 1.8 0.7 1.1 0.7 2.4 0 1.3-0.7 2.3-0.6 1.1-1.7 1.8-1.1 0.6-2.5 0.6-1.3 0-2.4-0.6zm4-0.2q0.7-0.7 1.1-1.7 0.4-1 0.4-2.2 0-1.2-0.4-2.3-0.4-1-1.1-1.7-0.7-0.5-1.6-0.5-0.8 0-1.5 0.5-0.7 0.7-1.1 1.7-0.5 1.1-0.5 2.3 0 1.2 0.5 2.2 0.4 1 1.1 1.7 0.7 0.5 1.5 0.5 0.9 0 1.6-0.5z"/>
				<path id="&lt;Compound Path&gt;" class="s2" d="m135.9 52.2q-1.9-0.2-2.2-1.5l1.3-0.4q0 0.3 0 0.5 0 0.5 0.3 0.8 0.5 0.4 1.3 0.4 0.9 0 1.6-0.5 0.5-0.5 0.5-1 0-0.1 0-0.2-0.2-0.6-0.7-1.2-0.4-0.5-0.9-0.9-0.5-0.2-1-0.6-0.7-0.3-1.3-0.8-0.6-0.4-1-1.2-0.1-0.4-0.1-0.9 0-0.2 0.1-0.5 0.3-0.7 1.2-1.1 0.8-0.3 1.6-0.3 0.3 0 0.6 0.1 1.1 0.1 1.6 0.6 0.5 0.5 0.6 0.9l-1.3 0.4q0.1-0.2 0.1-0.5 0-0.5-0.4-0.8-0.6-0.5-1.4-0.5-0.7 0-1 0.3-0.3 0.4-0.3 0.7 0 0.3 0.3 0.8 0.3 0.6 0.9 1.1 0.5 0.4 1.1 0.7 0.6 0.3 1.1 0.7 0.5 0.4 0.9 0.9 0.5 0.8 0.5 1.5 0 1.3-1.4 2-0.9 0.6-2.1 0.6-0.2 0-0.5-0.1z"/>
				<path id="&lt;Compound Path&gt;" class="s2" d="m148 52.3v-5.7q0-0.7 0-1.5-0.1-0.8-0.5-1.4-0.4-0.6-1.4-0.6-1.7 0-2.7 1.4v7.8h-1.7v-9.5h1.7v1.3q1.1-1.3 2.7-1.3 1.9 0.1 2.8 1.2 1 1 1 2.9v5.4z"/>
				<path id="&lt;Compound Path&gt;" class="s2" d="m151.5 41.3q-0.3-0.3-0.3-0.6 0-0.4 0.3-0.6 0.2-0.3 0.6-0.3 0.4 0 0.6 0.3 0.3 0.2 0.3 0.6 0 0.3-0.3 0.6-0.2 0.3-0.6 0.3-0.4 0-0.6-0.3zm-0.3 11v-9.5h1.7v9.5z"/>
				<path id="&lt;Compound Path&gt;" fill-rule="evenodd" class="s2" d="m160.2 52.3v-1.6q-0.9 1.6-2.8 1.6-0.5 0-1.1-0.1-1-0.4-1.6-1.4-0.3-0.5-0.3-0.9 0-0.8 0.6-1.4 0.5-0.7 1.2-0.9 0.8-0.3 1.7-0.5 0.7-0.2 1.4-0.5 0.6-0.2 0.8-0.9 0-0.5-0.1-0.9 0-0.6-0.4-1.1-0.6-0.7-1.3-0.7-0.8 0-1.3 0.5-0.5 0.4-0.5 1 0 0.2 0 0.4l-1.5-0.6q0.3-0.9 1.2-1.2 0.8-0.3 1.8-0.3 1.2 0 2.1 0.4 0.8 0.3 1.3 1 0.4 0.6 0.4 1.6 0.1 2.5 0.1 5v1.5zm0-2.2q0-1.8 0-3.8-0.4 0.4-0.9 0.6-0.5 0.2-1 0.4-0.6 0.1-1.1 0.3-0.4 0.3-0.6 0.7-0.2 0.4-0.2 0.9 0 0.3 0 0.7 0.2 1 0.8 1.4 0.6 0.5 1.1 0.5 1.3-0.1 1.9-1.7z"/>
			</g>
			<g id="&lt;Group&gt;">
				<g id="&lt;Group&gt;">
					<g id="&lt;Group&gt;">
						<path id="&lt;Path&gt;" class="s3" d="m96.2 20.3c-2.9-2.9-7.5-2.8-7.5-2.8 0 0-0.1 4.6 2.8 7.5 2.9 2.9 7.6 2.9 7.6 2.9 0 0 0-4.6-2.9-7.6z"/>
						<path id="&lt;Path&gt;" class="s3" d="m90.6 19.4c1.3 0.3 3.1 0.9 4.4 2.1 1.3 1.3 1.9 3.1 2.1 4.4-1.3-0.3-3.1-0.8-4.3-2.1-1.4-1.3-1.9-3.1-2.2-4.4z"/>
					</g>
					<g id="&lt;Group&gt;">
						<path id="&lt;Path&gt;" class="s3" d="m85.8 10c3 2.9 2.9 7.5 2.9 7.5 0 0-4.6 0.1-7.6-2.9-2.8-2.9-2.8-7.4-2.8-7.4 0 0 4.6-0.1 7.5 2.8z"/>
						<path id="&lt;Path&gt;" class="s3" d="m86.7 15.6c-0.2-1.4-0.8-3.1-2.1-4.5-1.2-1.2-3-1.8-4.4-2 0.3 1.3 0.9 3 2.2 4.4 1.2 1.2 3 1.8 4.3 2.1z"/>
					</g>
					<g id="&lt;Group&gt;">
						<path id="&lt;Path&gt;" class="s3" d="m85.8 25c3-2.9 2.9-7.5 2.9-7.5 0 0-4.6-0.1-7.6 2.8-2.8 3-2.8 7.6-2.8 7.6 0 0 4.6 0 7.5-2.9z"/>
						<path id="&lt;Path&gt;" class="s3" d="m86.7 19.4c-0.2 1.3-0.8 3.1-2.1 4.4-1.2 1.3-3 1.8-4.4 2.1 0.3-1.3 0.9-3.1 2.2-4.4 1.2-1.2 3-1.8 4.3-2.1z"/>
					</g>
					<g id="&lt;Group&gt;">
						<path id="&lt;Path&gt;" class="s3" d="m96.2 14.6c-2.9 3-7.5 2.9-7.5 2.9 0 0-0.1-4.6 2.8-7.5 2.9-2.9 7.6-2.8 7.6-2.8 0 0 0 4.5-2.9 7.4z"/>
						<path id="&lt;Path&gt;" class="s3" d="m90.6 15.6c1.3-0.3 3.1-0.9 4.4-2.1 1.3-1.4 1.9-3.1 2.1-4.4-1.3 0.2-3.1 0.8-4.3 2-1.4 1.4-1.9 3.1-2.2 4.5z"/>
					</g>
					<path id="&lt;Path&gt;" class="s3" d="m103.7 16.6c0.5 0.5 0.5 1.3 0 1.8-0.5 0.5-1.3 0.5-1.8 0-0.5-0.5-0.5-1.3 0-1.8 0.5-0.5 1.3-0.5 1.8 0z"/>
					<path id="&lt;Path&gt;" class="s3" d="m89.6 30.7c0.5 0.5 0.5 1.3 0 1.8-0.5 0.5-1.3 0.5-1.8 0-0.5-0.5-0.5-1.3 0-1.8 0.5-0.5 1.3-0.5 1.8 0z"/>
					<path id="&lt;Path&gt;" class="s3" d="m89.6 2.5c0.5 0.5 0.5 1.3 0 1.8-0.5 0.5-1.3 0.5-1.8 0-0.5-0.5-0.5-1.3 0-1.8 0.5-0.5 1.3-0.5 1.8 0z"/>
					<path id="&lt;Path&gt;" class="s3" d="m75.5 16.6c0.4 0.5 0.4 1.3 0 1.8-0.5 0.5-1.4 0.5-1.9 0-0.5-0.5-0.5-1.3 0-1.8 0.5-0.5 1.4-0.5 1.9 0z"/>
				</g>
				<path id="&lt;Path&gt;" class="s3" d="m88.7 4.6v25.7"/>
				<path id="&lt;Path&gt;" class="s3" d="m101.5 17.5h-25.6"/>
			</g>
		</g>
		<g id="&lt;Group&gt;">
			<g id="&lt;Group&gt;">
				<path id="&lt;Compound Path&gt;" class="s0" d="m15.4 346.8v-15.7h8.7v0.3h-6.9v7.4h4.6v0.3h-4.6v7.4h6.9v0.3z"/>
				<path id="&lt;Compound Path&gt;" class="s0" d="m31.9 346.8v-5.7q0-0.8-0.1-1.5-0.1-0.9-0.5-1.4-0.4-0.6-1.4-0.7-1.7 0.1-2.6 1.5v7.8h-1.8v-9.5h1.8v1.2q1-1.2 2.6-1.2 1.9 0.1 2.9 1.1 0.9 1.1 0.9 2.9v5.5z"/>
				<path id="&lt;Compound Path&gt;" class="s0" d="m37.4 346.1q-1.1-0.6-1.7-1.7-0.7-1-0.7-2.4 0-1.3 0.7-2.3 0.6-1.2 1.7-1.8 1.2-0.6 2.5-0.6 1.2 0 2.2 0.5 1 0.5 1.7 1.4l-1.2 0.8q-0.3-1.1-1.1-1.8-0.7-0.7-1.6-0.7-0.8 0-1.5 0.6-0.7 0.6-1.2 1.7-0.4 1-0.4 2.2 0 1.3 0.4 2.3 0.5 1 1.2 1.6 0.7 0.6 1.5 0.6 0.8 0 1.5-0.6 0.8-0.7 1.2-1.8l1.1 0.9q-0.7 0.8-1.7 1.3-1 0.5-2.1 0.5-1.3 0-2.5-0.7z"/>
				<path id="&lt;Compound Path&gt;" class="s0" d="m51.5 346.8v-5.9q0-0.7-0.1-1.3 0-0.8-0.4-1.4-0.5-0.6-1.4-0.7-1.7 0.1-2.7 1.5v7.8h-1.8v-15.7h1.8v7.4q1.1-1.2 2.7-1.2 1.8 0.1 2.8 1.1 0.9 1.1 0.9 2.9v5.5z"/>
				<path id="&lt;Compound Path&gt;" fill-rule="evenodd" class="s0" d="m60.5 346.8v-1.6q-0.9 1.5-2.8 1.5-0.5 0-1-0.1-1.1-0.3-1.7-1.3-0.2-0.5-0.2-1 0-0.7 0.5-1.4 0.6-0.6 1.3-0.9 0.7-0.2 1.6-0.5 0.7-0.2 1.4-0.4 0.6-0.3 0.8-0.9v-0.1q0-0.4-0.1-0.9 0-0.6-0.4-1-0.5-0.7-1.3-0.7-0.8 0-1.3 0.4-0.5 0.5-0.5 1.1 0 0.2 0.1 0.3l-1.6-0.6q0.3-0.8 1.2-1.1 0.8-0.3 1.9-0.3 1.1 0 2 0.3 0.8 0.4 1.3 1 0.5 0.7 0.5 1.7 0 2.5 0 5v1.5zm0-2.2q0-1.9 0-3.8-0.3 0.4-0.9 0.6-0.5 0.2-1 0.4-0.5 0.1-1 0.3-0.5 0.2-0.7 0.6-0.2 0.5-0.2 1 0 0.3 0 0.6 0.2 1.1 0.8 1.5 0.6 0.4 1.2 0.4 1.3 0 1.8-1.6z"/>
				<path id="&lt;Compound Path&gt;" class="s0" d="m69.9 346.8v-5.7q0-0.8-0.1-1.5-0.1-0.9-0.5-1.4-0.4-0.6-1.4-0.7-1.7 0.1-2.7 1.5v7.8h-1.7v-9.5h1.7v1.2q1.1-1.2 2.7-1.2 1.9 0.1 2.8 1.1 1 1.1 1 2.9v5.5z"/>
				<path id="&lt;Compound Path&gt;" class="s0" d="m76.8 346.8q-0.3 0-0.9-0.1-0.5-0.2-1-0.8-0.6-0.8-0.6-2.7-0.1-1.8-0.1-3.6 0-1.1 0-2.1h-1.2v-0.2h1.2q0.1-1.3 0.1-2.7h1.7v2.7h2.1v0.2h-2.1v1.9q0 1.9 0 3.8v0.2q0 2.6 1 3 0.1 0 0.3 0 0.3 0 0.5-0.2 0.3-0.2 0.3-0.8h0.3q-0.1 0.8-0.8 1.2-0.4 0.2-0.8 0.2z"/>
				<path id="&lt;Compound Path&gt;" class="s0" d="m80 335.8q-0.3-0.3-0.3-0.6 0-0.4 0.3-0.7 0.3-0.2 0.6-0.2 0.4 0 0.7 0.2 0.2 0.3 0.2 0.7 0 0.3-0.2 0.6-0.3 0.3-0.7 0.3-0.3 0-0.6-0.3zm-0.3 11v-9.5h1.8v9.5z"/>
				<path id="&lt;Compound Path&gt;" class="s0" d="m89.3 346.8v-5.7q0-0.8-0.1-1.5-0.2-0.9-0.6-1.4-0.3-0.6-1.3-0.7-1.8 0.1-2.7 1.5v7.8h-1.7v-9.5h1.7v1.2q1.1-1.2 2.7-1.2 1.9 0.1 2.8 1.1 1 1.1 1 2.9v5.5z"/>
				<path id="&lt;Compound Path&gt;" fill-rule="evenodd" class="s0" d="m97.2 351.8q-0.7 0-1.7-0.2-1-0.3-1.6-0.9-0.7-0.5-0.7-1.2 0-0.3 0.1-0.5 0.2-0.8 1-1.5-0.9-0.4-1-0.9-0.1-0.5-0.1-0.7 0-0.6 0.3-1.1 0.5-0.7 1.6-1-1.2-0.5-1.8-1.4-0.6-0.8-0.6-1.7 0-1 0.6-1.7 0.6-0.8 1.6-1.3 1-0.4 2.2-0.4 0.6 0 1.2-0.2 0.5-0.2 1-0.6 0.4-0.4 0.5-1l0.9 0.7q-0.3 0.2-0.7 0.4-0.5 0.3-1 0.5-0.6 0.2-0.9 0.2 0.9 0.3 1.6 0.7 0.8 0.4 1.3 1 0.5 0.7 0.5 1.7 0 1-0.6 1.8-0.6 0.7-1.6 1.2-0.9 0.4-2.2 0.4-0.7 0-1.3-0.1-0.1 0-0.2 0-0.3 0-0.7 0.1-0.6 0.2-0.8 0.5-0.2 0.2-0.2 0.4 0 0.3 0.3 0.5 0.4 0.4 2.1 0.7 1-0.5 1.9-0.9 0.8-0.3 1.6-0.3 0.2 0 0.4 0l-0.4 1h-0.1q-0.4-0.3-0.9-0.3-0.2 0-0.5 0-0.6 0.1-1.5 0.5l0.3 0.1q1.2 0.1 2.2 0.4 1.6 0.5 2.2 1.2 0.5 0.8 0.5 1.3 0 0.4-0.2 0.7-0.5 0.9-1.8 1.4-1.2 0.5-2.7 0.5zm2.3-0.6q0.8-0.5 0.8-1.1 0-0.6-0.7-1.1-0.6-0.5-1.5-0.7-0.6-0.1-1.3-0.2-1.3-0.1-2.3-0.5-0.7 0.7-1 1.5 0 0.2 0 0.4 0 0.7 0.6 1.1 0.6 0.5 1.6 0.8 0.9 0.2 1.6 0.2 1.4 0 2.2-0.4zm-0.6-8.3q0.8-0.9 0.7-2.2 0.1-1.3-0.7-2.2-0.8-1-1.8-1-1.1 0-1.9 1-0.7 0.9-0.7 2.2 0 1.3 0.7 2.2 0.8 1 1.9 1 1 0 1.8-1z"/>
				<path id="&lt;Compound Path&gt;" fill-rule="evenodd" class="s0" d="m116.1 331.1q2.1 0 3.2 0.9 1 0.8 1.2 2 0.1 1.2-0.6 2.2-0.7 1.1-2.1 1.5 1.5 0.2 2.5 0.9 0.9 0.7 1.4 1.8 0.4 1 0.2 2.1-0.1 1.1-0.8 2.1-0.7 0.9-2 1.6-1.3 0.6-3.1 0.6h-5.9v-15.7zm-4.2 6.6h4.4q1.2-0.1 1.8-1.1 0.6-0.9 0.6-2.1-0.1-1.2-0.7-2.2-0.6-0.9-1.9-0.9h-4.2zm0 0.2v8.5h4.1q1.3 0 2.2-0.5 0.9-0.6 1.3-1.6 0.5-1 0.5-2.1 0-1.1-0.3-2.1-0.4-0.9-1.1-1.6-0.8-0.5-1.9-0.6c-1.1 0-3.8 0-4.8 0z"/>
				<path id="&lt;Compound Path&gt;" fill-rule="evenodd" class="s0" d="m125.4 346.1q-1.2-0.6-1.8-1.7-0.7-1-0.7-2.4 0-1.3 0.7-2.3 0.6-1.2 1.8-1.8 1-0.6 2.4-0.6 1.4 0 2.5 0.6 1 0.6 1.7 1.8 0.6 1 0.6 2.3 0 1.4-0.6 2.4-0.7 1.1-1.7 1.7-1.1 0.7-2.5 0.7-1.4 0-2.4-0.7zm4-0.2q0.7-0.6 1.1-1.6 0.4-1 0.4-2.3 0-1.2-0.4-2.2-0.4-1.1-1.1-1.7-0.7-0.6-1.6-0.6-0.9 0-1.5 0.6-0.7 0.6-1.1 1.7-0.5 1-0.5 2.2 0 1.3 0.5 2.3 0.4 1 1.1 1.6 0.7 0.6 1.5 0.6 0.9 0 1.6-0.6z"/>
				<path id="&lt;Compound Path&gt;" class="s0" d="m135.9 346.7q-1.9-0.3-2.3-1.5l1.4-0.5q-0.1 0.3-0.1 0.5 0 0.6 0.4 0.9 0.5 0.4 1.2 0.4 0.9 0 1.6-0.5 0.6-0.5 0.6-1 0-0.2-0.1-0.2-0.1-0.7-0.6-1.3-0.4-0.4-0.9-0.8-0.5-0.3-1-0.6-0.7-0.3-1.4-0.8-0.5-0.5-0.9-1.2-0.2-0.4-0.2-0.9 0-0.2 0.2-0.6 0.2-0.7 1.2-1 0.7-0.3 1.6-0.3 0.2 0 0.6 0 1.1 0.2 1.6 0.7 0.4 0.4 0.6 0.8l-1.4 0.5q0.1-0.3 0.1-0.5 0-0.5-0.4-0.9-0.5-0.4-1.3-0.4-0.7 0-1 0.3-0.3 0.4-0.3 0.7 0 0.3 0.2 0.8 0.4 0.6 0.9 1.1 0.6 0.3 1.2 0.7 0.5 0.3 1.1 0.7 0.4 0.3 0.8 0.9 0.6 0.7 0.6 1.5 0 1.3-1.4 2-1 0.6-2.1 0.6-0.3 0-0.5-0.1z"/>
				<path id="&lt;Compound Path&gt;" class="s0" d="m148 346.8v-5.7q0-0.8-0.1-1.5-0.1-0.9-0.5-1.4-0.4-0.6-1.3-0.7-1.8 0.1-2.7 1.5v7.8h-1.8v-9.5h1.8v1.2q1-1.2 2.7-1.2 1.9 0.1 2.8 1.1 0.9 1.1 0.9 2.9v5.5z"/>
				<path id="&lt;Compound Path&gt;" class="s0" d="m151.4 335.8q-0.3-0.3-0.3-0.6 0-0.4 0.3-0.7 0.3-0.2 0.6-0.2 0.4 0 0.7 0.2 0.3 0.3 0.3 0.7 0 0.3-0.3 0.6-0.3 0.3-0.7 0.3-0.3 0-0.6-0.3zm-0.3 11v-9.5h1.8v9.5z"/>
				<path id="&lt;Compound Path&gt;" fill-rule="evenodd" class="s0" d="m160.1 346.8v-1.6q-0.8 1.5-2.8 1.5-0.5 0-1-0.1-1.1-0.3-1.7-1.3-0.2-0.5-0.2-1 0-0.7 0.5-1.4 0.6-0.6 1.3-0.9 0.8-0.2 1.6-0.5 0.8-0.2 1.4-0.4 0.7-0.3 0.8-0.9v-0.1q0-0.4-0.1-0.9 0-0.6-0.4-1-0.5-0.7-1.3-0.7-0.8 0-1.3 0.4-0.4 0.5-0.4 1.1 0 0.2 0 0.3l-1.6-0.6q0.4-0.8 1.2-1.1 0.9-0.3 1.9-0.3 1.1 0 2 0.3 0.9 0.4 1.3 1 0.5 0.7 0.5 1.7 0.1 2.5 0.1 5v1.5zm0-2.2q0-1.9-0.1-3.8-0.3 0.4-0.8 0.6-0.5 0.2-1.1 0.4-0.5 0.1-1 0.3-0.5 0.2-0.7 0.6-0.2 0.5-0.2 1 0 0.3 0.1 0.6 0.2 1.1 0.8 1.5 0.6 0.4 1.1 0.4 1.3 0 1.9-1.6z"/>
			</g>
			<g id="&lt;Group&gt;">
				<g id="&lt;Group&gt;">
					<g id="&lt;Group&gt;">
						<path id="&lt;Path&gt;" class="s3" d="m96.2 314.8c-3-2.9-7.6-2.9-7.6-2.9 0 0 0 4.7 2.9 7.6 2.9 2.9 7.5 2.8 7.5 2.8 0 0 0.1-4.6-2.8-7.5z"/>
						<path id="&lt;Path&gt;" class="s3" d="m90.6 313.9c1.3 0.2 3.1 0.8 4.3 2.1h0.1c1.3 1.3 1.8 3.1 2.1 4.4-1.3-0.3-3.1-0.8-4.4-2.2-1.3-1.2-1.8-3-2.1-4.3z"/>
					</g>
					<g id="&lt;Group&gt;">
						<path id="&lt;Path&gt;" class="s3" d="m85.8 304.4c2.9 2.9 2.8 7.5 2.8 7.5 0 0-4.5 0.1-7.5-2.8-2.9-2.9-2.8-7.5-2.8-7.5 0 0 4.6-0.1 7.5 2.9z"/>
						<path id="&lt;Path&gt;" class="s3" d="m86.7 310c-0.3-1.3-0.8-3-2.1-4.4-1.3-1.2-3-1.8-4.4-2.1 0.3 1.4 0.9 3.1 2.1 4.4 1.3 1.3 3.1 1.9 4.4 2.1z"/>
					</g>
					<g id="&lt;Group&gt;">
						<path id="&lt;Path&gt;" class="s3" d="m85.8 319.5c2.9-2.9 2.8-7.6 2.8-7.6 0 0-4.5 0-7.5 2.9-2.9 2.9-2.8 7.5-2.8 7.5 0 0 4.6 0.1 7.5-2.8z"/>
						<path id="&lt;Path&gt;" class="s3" d="m86.7 313.9c-0.3 1.3-0.8 3.1-2.1 4.3-1.3 1.4-3 1.9-4.4 2.2 0.3-1.3 0.9-3.1 2.1-4.4 1.3-1.3 3.1-1.8 4.4-2.1z"/>
					</g>
					<g id="&lt;Group&gt;">
						<path id="&lt;Path&gt;" class="s3" d="m96.2 309.1c-3 2.9-7.6 2.8-7.6 2.8 0 0 0-4.6 2.9-7.5 2.9-2.9 7.5-2.8 7.5-2.8 0 0 0.1 4.6-2.8 7.5z"/>
						<path id="&lt;Path&gt;" class="s3" d="m90.6 310c1.3-0.2 3.1-0.8 4.3-2.1h0.1c1.3-1.3 1.8-3 2.1-4.4-1.3 0.3-3.1 0.9-4.4 2.1-1.3 1.4-1.8 3.1-2.1 4.4z"/>
					</g>
					<path id="&lt;Path&gt;" class="s3" d="m103.7 311c0.5 0.5 0.5 1.4 0 1.8-0.5 0.5-1.4 0.5-1.8 0-0.5-0.4-0.5-1.3 0-1.8 0.4-0.5 1.3-0.5 1.8 0z"/>
					<path id="&lt;Path&gt;" class="s3" d="m89.5 325.2c0.6 0.5 0.6 1.3 0 1.8-0.5 0.5-1.2 0.5-1.8 0-0.5-0.5-0.5-1.3 0-1.8 0.6-0.5 1.3-0.5 1.8 0z"/>
					<path id="&lt;Path&gt;" class="s3" d="m89.5 297c0.6 0.4 0.6 1.3 0 1.8-0.5 0.5-1.2 0.5-1.8 0-0.5-0.5-0.5-1.3 0-1.8 0.6-0.6 1.3-0.6 1.8 0z"/>
					<path id="&lt;Path&gt;" class="s3" d="m75.5 311c0.4 0.5 0.4 1.4 0 1.8-0.5 0.5-1.4 0.5-1.9 0-0.5-0.4-0.5-1.3 0-1.8 0.5-0.5 1.4-0.5 1.9 0z"/>
				</g>
				<path id="&lt;Path&gt;" class="s3" d="m88.6 299.1v25.6"/>
				<path id="&lt;Path&gt;" class="s3" d="m101.5 311.9h-25.7"/>
			</g>
		</g>
	</g>
</svg>